<?xml version="1.0" standalone="no"?>
<!DOCTYPE svg PUBLIC "-//W3C//DTD SVG 20010904//EN"
 "http://www.w3.org/TR/2001/REC-SVG-20010904/DTD/svg10.dtd">
<svg version="1.0" xmlns="http://www.w3.org/2000/svg"
 width="1024.000000pt" height="1024.000000pt" viewBox="0 0 1024.000000 1024.000000"
 preserveAspectRatio="xMidYMid meet">
<metadata>
Created by potrace 1.14, written by Peter Selinger 2001-2017
</metadata>
<g transform="translate(0.000000,1024.000000) scale(0.100000,-0.100000)"
fill="#000000" stroke="none">
<path d="M0 5120 l0 -5120 5120 0 5120 0 0 5120 0 5120 -5120 0 -5120 0 0
-5120z m7635 2644 c28 -3 73 -10 100 -16 28 -5 59 -11 70 -13 11 -2 54 -10 95
-19 120 -24 132 -26 185 -31 28 -2 82 -11 120 -20 98 -23 160 -27 233 -17 l63
9 -66 -67 c-62 -62 -73 -69 -137 -85 -65 -16 -163 -16 -188 0 -5 3 -82 19
-172 35 -90 17 -235 43 -323 59 -153 28 -249 33 -344 16 -20 -4 -9 11 52 73
60 61 84 78 109 80 18 2 34 5 36 7 5 4 71 0 167 -11z m-270 -279 c11 -3 40 -9
65 -16 25 -6 56 -13 70 -15 14 -3 79 -16 145 -30 309 -63 432 -77 516 -59 l60
12 -67 -68 c-40 -40 -83 -74 -104 -81 -58 -19 -194 -10 -405 27 -109 19 -201
33 -204 30 -10 -5 -161 24 -202 40 -38 14 -245 14 -271 0 -7 -4 23 29 67 74
78 78 82 81 140 90 55 8 140 6 190 -4z m-640 -780 c77 -14 145 -27 150 -29 18
-5 149 -25 235 -36 46 -7 92 -16 101 -20 28 -16 138 -18 201 -5 l59 12 -72
-73 c-64 -65 -79 -75 -128 -86 -75 -16 -126 -17 -186 -2 -27 7 -70 15 -95 19
-25 3 -76 13 -115 20 -97 19 -326 61 -409 75 -64 10 -226 6 -251 -7 -5 -3 26
31 69 75 44 45 82 79 86 77 3 -2 12 1 20 6 23 15 178 3 335 -26z m-410 -256
c64 -17 264 -56 485 -95 186 -34 212 -36 292 -28 l88 9 -63 -64 c-34 -35 -76
-69 -94 -77 -62 -27 -251 -13 -493 37 -52 10 -108 20 -125 20 -53 3 -209 31
-228 41 -32 17 -215 11 -251 -9 -6 -3 25 31 69 76 68 69 87 83 125 90 63 12
148 12 195 0z m-785 -776 c76 -9 72 -9 195 -33 203 -40 250 -48 256 -44 8 5
105 -12 190 -33 54 -14 82 -15 153 -7 l87 10 -73 -72 c-66 -65 -79 -73 -133
-84 -74 -16 -165 -14 -193 4 -8 4 -41 12 -75 16 -34 5 -73 11 -87 14 -31 7
-345 67 -380 72 -14 2 -52 8 -85 13 -73 11 -168 5 -225 -15 -8 -3 21 31 65 75
101 102 119 107 305 84z m-255 -284 c16 -5 91 -21 165 -35 74 -13 207 -37 295
-53 203 -37 263 -42 337 -26 l59 12 -72 -73 c-60 -60 -81 -75 -118 -83 -78
-17 -212 -4 -432 40 -81 16 -177 31 -215 34 -38 3 -98 13 -134 22 -72 18 -181
22 -250 10 l-45 -8 80 80 c67 67 86 81 118 84 21 3 41 8 45 11 9 10 127 -1
167 -15z m-765 -798 c36 -6 135 -25 220 -40 85 -16 198 -35 250 -41 52 -7 100
-16 106 -21 21 -17 213 -11 248 8 6 3 -22 -28 -63 -70 -69 -70 -78 -76 -143
-92 -65 -16 -163 -16 -188 0 -5 3 -58 15 -117 25 -60 11 -119 22 -133 25 -14
3 -113 21 -220 40 -193 35 -237 38 -360 19 l-35 -5 79 80 c44 44 89 82 100 84
39 7 191 0 256 -12z m-281 -280 c9 -5 55 -17 102 -25 46 -8 95 -18 109 -20 14
-3 59 -13 100 -21 41 -8 86 -18 100 -21 105 -24 259 -37 331 -28 l79 9 -67
-67 c-39 -39 -82 -73 -103 -80 -58 -19 -194 -10 -405 27 -109 19 -201 33 -204
31 -3 -2 -26 0 -51 5 -25 5 -63 12 -85 15 -22 3 -46 11 -54 17 -16 14 -172 18
-244 7 l-49 -7 79 79 c75 74 81 79 138 87 68 11 197 6 224 -8z m-659 -774
c168 -34 291 -56 315 -55 11 1 66 -9 122 -21 106 -22 166 -25 246 -12 l49 8
-74 -73 c-62 -62 -81 -75 -123 -85 -72 -16 -129 -18 -172 -7 -21 5 -119 25
-218 43 -99 18 -227 43 -285 55 -110 23 -280 31 -355 16 l-40 -7 79 80 c44 44
89 82 100 85 48 11 239 -4 356 -27z m-405 -257 c17 -6 66 -17 110 -26 44 -9
123 -24 175 -35 327 -66 422 -76 509 -56 l63 15 -68 -70 c-38 -39 -83 -76
-101 -84 -37 -16 -166 -19 -239 -5 -27 5 -74 12 -104 16 -30 4 -57 8 -60 10
-11 7 -188 35 -243 40 -76 5 -123 14 -180 32 -68 21 -229 19 -271 -4 -6 -3 25
31 69 76 62 63 87 82 115 87 19 3 44 9 55 13 23 10 126 4 170 -9z m-780 -775
c22 -3 110 -19 195 -36 85 -17 166 -33 180 -35 14 -3 48 -7 75 -9 85 -6 149
-16 162 -26 23 -20 208 -13 248 8 5 3 -24 -29 -65 -71 -64 -65 -84 -79 -130
-92 -61 -17 -163 -19 -192 -3 -10 5 -92 23 -181 39 -89 16 -225 41 -302 55
-179 33 -184 34 -285 34 l-84 1 69 70 c37 38 71 68 74 66 3 -2 15 0 26 4 20 8
135 5 210 -5z m-260 -289 c17 -4 44 -8 60 -11 35 -6 28 -5 220 -44 312 -63
403 -73 503 -54 l54 10 -73 -73 c-103 -104 -135 -109 -419 -68 -58 8 -118 19
-135 24 -16 5 -124 25 -238 45 -160 28 -229 36 -298 33 l-89 -3 72 72 c39 40
81 74 92 77 25 5 208 -1 251 -8z"/>
</g>
</svg>
